<svg id="Layer_1" data-name="Layer 1" xmlns="http://www.w3.org/2000/svg" viewBox="0 0 655.37 144"><path d="M35.2,30.8Q26,38.8,26,54.4v9a3,3,0,0,0,3,3H83a4,4,0,0,1,4,4v14a4,4,0,0,1-4,4H29a3,3,0,0,0-3,3V138a4,4,0,0,1-4,4H4a4,4,0,0,1-4-4V54.4Q0,29,16.3,14.5T61.2,0A92.3,92.3,0,0,1,83.6,2.6,63.39,63.39,0,0,1,98.82,8.43a4,4,0,0,1,1.76,4.93L95.33,26.93a4,4,0,0,1-5.67,2Q78.32,22.81,62.4,22.8,44.4,22.8,35.2,30.8Z" fill="#0e6d5b"/><path d="M139.28,2h0a4,4,0,0,1,4,4V118a2,2,0,0,0,2,2h67.17a4,4,0,0,1,4,4v14a4,4,0,0,1-4,4h-91.2a4,4,0,0,1-4-4V24A22,22,0,0,1,139.28,2Z" fill="#0e6d5b"/><path d="M256,134.7a68.83,68.83,0,0,1-27-25.8,70.82,70.82,0,0,1-9.8-36.9A70.82,70.82,0,0,1,229,35.1,68.83,68.83,0,0,1,256,9.3Q273.17,0,294.58,0t38.6,9.3a69.21,69.21,0,0,1,27,25.7Q370,51.4,370,72t-9.8,37a69.21,69.21,0,0,1-27,25.7Q316,144,294.58,144T256,134.7Zm63.8-19.8a45.66,45.66,0,0,0,17.6-17.6,50.5,50.5,0,0,0,6.4-25.3,50.5,50.5,0,0,0-6.4-25.3,45.66,45.66,0,0,0-17.6-17.6,53.55,53.55,0,0,0-50.4,0,45.52,45.52,0,0,0-17.6,17.6,50.4,50.4,0,0,0-6.4,25.3,50.4,50.4,0,0,0,6.4,25.3,45.52,45.52,0,0,0,17.6,17.6,53.55,53.55,0,0,0,50.4,0Z" fill="#0e6d5b"/><path d="M434.67,85.77l-18.19,18.68a6,6,0,0,0-1.7,4.19V138a4,4,0,0,1-4,4h-18a4,4,0,0,1-4-4V24a22,22,0,0,1,22-22h0a4,4,0,0,1,4,4V68.84a2,2,0,0,0,3.44,1.39L474,12.41A34,34,0,0,1,498.43,2h7.81a3,3,0,0,1,2.19,5.05L456.16,62.7a3,3,0,0,0-.14,3.93l56.82,70.49A3,3,0,0,1,510.5,142H491a10,10,0,0,1-7.65-3.55L439.11,85.93A3,3,0,0,0,434.67,85.77Z" fill="#0e6d5b"/><path d="M576.52,85.77l-18.19,18.68a6,6,0,0,0-1.7,4.19V138a4,4,0,0,1-4,4h-18a4,4,0,0,1-4-4V24a22,22,0,0,1,22-22h0a4,4,0,0,1,4,4V68.84a2,2,0,0,0,3.44,1.39L615.8,12.41A34,34,0,0,1,640.28,2h7.82a3,3,0,0,1,2.19,5.05L598,62.7a3,3,0,0,0-.15,3.93l56.83,70.49a3,3,0,0,1-2.34,4.88H632.88a10,10,0,0,1-7.64-3.55L581,85.93A3,3,0,0,0,576.52,85.77Z" fill="#0e6d5b"/></svg>